<?xml version="1.0" encoding="UTF-8"?>
<svg xmlns="http://www.w3.org/2000/svg" width="1400" height="900" viewBox="0 0 1400 900">
<defs><marker id="arrow" markerWidth="10" markerHeight="8" refX="9" refY="4" orient="auto" markerUnits="strokeWidth"><path d="M0,0 L10,4 L0,8 Z" fill="#000"/></marker></defs>
<style>text{font-family:"Noto Sans CJK SC","Microsoft YaHei",sans-serif;fill:#000}.box{fill:#fff;stroke:#000;stroke-width:2}.thin{fill:none;stroke:#000;stroke-width:1.5}.line{fill:none;stroke:#000;stroke-width:2}.dash{fill:none;stroke:#000;stroke-width:2;stroke-dasharray:9 7}.arrow{fill:none;stroke:#000;stroke-width:2;marker-end:url(#arrow)}.small{font-size:18px}.normal{font-size:22px}.large{font-size:27px;font-weight:600}.mono{font-family:monospace;font-size:18px}</style>
<rect x="1" y="1" width="1398" height="898" fill="#fff" stroke="none"/>
<text x="700" y="45" text-anchor="middle" class="large" font-family="Noto Sans CJK SC" font-style="normal" font-weight="normal">
<tspan x="700" dy="0">同一来源帧内多目标互斥</tspan>
</text>
<rect x="80" y="120" width="410" height="420" rx="10" class="box"/>
<text x="93" y="145" text-anchor="start" class="small" font-family="Noto Sans CJK SC" font-style="normal" font-weight="600">
<tspan x="93" dy="0">401</tspan>
</text>
<text x="285.0" y="337.35" text-anchor="middle" class="normal" font-family="Noto Sans CJK SC" font-style="normal" font-weight="normal">
<tspan x="285.0" dy="0">来源帧F(k)</tspan>
</text>
<circle cx="185" cy="280" r="32" fill="white" stroke="#000" stroke-width="2"/>
<text x="185" y="287" text-anchor="middle" class="small" font-family="Noto Sans CJK SC" font-style="normal" font-weight="normal">
<tspan x="185" dy="0">D1</tspan>
</text>
<circle cx="290" cy="245" r="32" fill="white" stroke="#000" stroke-width="2"/>
<text x="290" y="252" text-anchor="middle" class="small" font-family="Noto Sans CJK SC" font-style="normal" font-weight="normal">
<tspan x="290" dy="0">D2</tspan>
</text>
<circle cx="385" cy="330" r="32" fill="white" stroke="#000" stroke-width="2"/>
<text x="385" y="337" text-anchor="middle" class="small" font-family="Noto Sans CJK SC" font-style="normal" font-weight="normal">
<tspan x="385" dy="0">D3</tspan>
</text>
<text x="285" y="455" text-anchor="middle" class="small" font-family="Noto Sans CJK SC" font-style="normal" font-weight="normal">
<tspan x="285" dy="0">三条检测类别相同且位置接近</tspan>
<tspan x="285" dy="27">sourceFrameKey完全相同</tspan>
</text>
<rect x="570" y="205" width="280" height="160" rx="10" class="box"/>
<text x="583" y="230" text-anchor="start" class="small" font-family="Noto Sans CJK SC" font-style="normal" font-weight="600">
<tspan x="583" dy="0">402</tspan>
</text>
<text x="710.0" y="264.0" text-anchor="middle" class="normal" font-family="Noto Sans CJK SC" font-style="normal" font-weight="normal">
<tspan x="710.0" dy="0">互斥判定</tspan>
<tspan x="710.0" dy="28">frameKey相同</tspan>
<tspan x="710.0" dy="28">禁止归入同一事件</tspan>
</text>
<line x1="490" y1="330" x2="570" y2="285" class="line"/>
<polygon points="570,285 561.61,296.60 555.73,286.14" fill="#000"/>
<circle cx="1060" cy="170" r="48" fill="white" stroke="#000" stroke-width="2"/>
<text x="1060" y="177" text-anchor="middle" class="small" font-family="Noto Sans CJK SC" font-style="normal" font-weight="normal">
<tspan x="1060" dy="0">E1</tspan>
</text>
<line x1="850" y1="285" x2="1012" y2="170" class="line"/>
<polygon points="1012,170 1004.87,182.42 997.93,172.63" fill="#000"/>
<circle cx="1060" cy="300" r="48" fill="white" stroke="#000" stroke-width="2"/>
<text x="1060" y="307" text-anchor="middle" class="small" font-family="Noto Sans CJK SC" font-style="normal" font-weight="normal">
<tspan x="1060" dy="0">E2</tspan>
</text>
<line x1="850" y1="285" x2="1012" y2="300" class="line"/>
<polygon points="1012,300 998.50,304.78 999.61,292.83" fill="#000"/>
<circle cx="1060" cy="430" r="48" fill="white" stroke="#000" stroke-width="2"/>
<text x="1060" y="437" text-anchor="middle" class="small" font-family="Noto Sans CJK SC" font-style="normal" font-weight="normal">
<tspan x="1060" dy="0">E3</tspan>
</text>
<line x1="850" y1="285" x2="1012" y2="430" class="line"/>
<polygon points="1012,430 998.31,425.80 1006.32,416.86" fill="#000"/>
<rect x="180" y="640" width="360" height="110" rx="10" class="box"/>
<text x="193" y="665" text-anchor="start" class="small" font-family="Noto Sans CJK SC" font-style="normal" font-weight="600">
<tspan x="193" dy="0">403</tspan>
</text>
<text x="360.0" y="688.1750000000001" text-anchor="middle" class="normal" font-family="Noto Sans CJK SC" font-style="normal" font-weight="normal">
<tspan x="360.0" dy="0">下一来源帧F(k+1)</tspan>
<tspan x="360.0" dy="28">允许分别与E1、E2、E3关联</tspan>
</text>
<polyline points="540,695 880,695 880,170 1012,170" class="dash"/>
<polygon points="1012,170 999.00,176.00 999.00,164.00" fill="#000"/>
<polyline points="540,695 880,695 880,300 1012,300" class="dash"/>
<polygon points="1012,300 999.00,306.00 999.00,294.00" fill="#000"/>
<polyline points="540,695 880,695 880,430 1012,430" class="dash"/>
<polygon points="1012,430 999.00,436.00 999.00,424.00" fill="#000"/>
<text x="850" y="790" text-anchor="middle" class="normal" font-family="Noto Sans CJK SC" font-style="normal" font-weight="normal">
<tspan x="850" dy="0">效果：空间和外观再相似，也不会把同帧真实多目标合并</tspan>
</text>
<text x="700.0" y="876" text-anchor="middle" class="normal" font-family="Noto Sans CJK SC" font-style="normal" font-weight="600">
<tspan x="700.0" dy="0">图4</tspan>
</text>
</svg>
